<svg id="Layer_1" data-name="Layer 1" xmlns="http://www.w3.org/2000/svg" viewBox="0 0 76.13 76.17"><defs><style>.cls-1{fill:#585857;}.cls-2{fill:#fff;}.cls-3{opacity:0.2;}.cls-4{fill:#232a2c;}.cls-5{opacity:0;}.cls-6{fill:#377f00;}.cls-7{fill:#222221;}.cls-8{fill:#f3d036;}</style></defs><title>ikona_telefon</title><path class="cls-1" d="M270.15,220.24a3.55,3.55,0,0,0-.77.36,3.47,3.47,0,0,0-.65.45c-3.4,2.51-4.37,6.31-4,10.48a37.75,37.75,0,0,0,16,27.78c12.23,8.48,30,8.38,42-.55,12.21-9.11,18.19-25.11,14-39.94-4-14.16-16.87-24.84-31.4-26.48a37.26,37.26,0,0,0-24.23,6,36.83,36.83,0,0,0-10.07,9.76,9.83,9.83,0,0,0-.2,10.82q-0.19.57-.37,1.15Z" transform="translate(-261.93 -189.4)"/><path class="cls-2" d="M267.4,217.5a3.54,3.54,0,0,0-.77.36,3.47,3.47,0,0,0-.65.45c-3.4,2.52-4.37,6.31-4,10.48a37.75,37.75,0,0,0,16,27.78c12.23,8.48,30,8.38,42-.55,12.21-9.11,18.19-25.11,14-39.94-4-14.16-16.87-24.84-31.4-26.48a37.26,37.26,0,0,0-24.23,6,36.83,36.83,0,0,0-10.07,9.76,9.83,9.83,0,0,0-.2,10.82q-0.19.57-.37,1.15Z" transform="translate(-261.93 -189.4)"/><g class="cls-3"><path class="cls-4" d="M277.28,211.64a25.83,25.83,0,1,1-4.45,14.5,1.37,1.37,0,0,0-2.74,0,28.55,28.55,0,1,0,4.83-15.89c-1,1.46,1.37,2.83,2.37,1.38h0Z" transform="translate(-261.93 -189.4)"/></g><g class="cls-5"><path class="cls-6" d="M319,220a21.27,21.27,0,1,1-7-10.42c1.36,1.1,3.31-.83,1.94-1.94a24,24,0,1,0,7.67,11.63A1.37,1.37,0,0,0,319,220h0Z" transform="translate(-261.93 -189.4)"/></g><path class="cls-7" d="M281.67,235.25a13.7,13.7,0,0,0,27,4.67l1.4-8.09a0.92,0.92,0,0,0-1.81-.31,1.24,1.24,0,0,1-1.43,1,2.62,2.62,0,0,1-.49-0.14,11,11,0,1,0-19.93-3.45,2.62,2.62,0,0,1-.51,0,1.24,1.24,0,0,1-1-1.43,0.92,0.92,0,0,0-.75-1.06h0a0.92,0.92,0,0,0-1.06.75Zm24.54-7.37a9.24,9.24,0,0,1-1.24,3.27,2.61,2.61,0,0,1-.26-1.65,0.92,0.92,0,0,0-1.81-.31,2.62,2.62,0,1,1-5.17-.89,0.92,0.92,0,0,0-1.81-.31,2.62,2.62,0,1,1-5.17-.89,0.92,0.92,0,0,0-1.81-.31,2.61,2.61,0,0,1-.8,1.47A9.2,9.2,0,1,1,306.21,227.88Zm-22.73,7.69,0.92-5.33a3,3,0,0,0,1.19.48,4.45,4.45,0,0,0,3.79-1.12,4.45,4.45,0,0,0,7,1.21,4.45,4.45,0,0,0,7,1.21,4.45,4.45,0,0,0,3.19,2.33,3,3,0,0,0,1.26,0l-0.92,5.32A11.87,11.87,0,1,1,283.48,235.57Z" transform="translate(-261.93 -189.4)"/><path class="cls-7" d="M284,213.86l1.17,2.78a0.92,0.92,0,0,0,.58.52l0.11,0a0.92,0.92,0,0,0,1-1.26,0.43,0.43,0,0,1,.23-0.57h0a1.31,1.31,0,0,1,1.71.7,0.92,0.92,0,1,0,1.69-.71,1.31,1.31,0,0,1,2.41-1,0.92,0.92,0,0,0,1.69-.71,1.31,1.31,0,0,1,2.41-1,0.92,0.92,0,1,0,1.69-.71,1.31,1.31,0,0,1,.7-1.71,0.43,0.43,0,0,1,.57.23,0.92,0.92,0,0,0,1.2.49h0a0.92,0.92,0,0,0,.49-1.2l-1.17-2.78A8.95,8.95,0,0,0,284,213.86Zm1.66-6.16a7.11,7.11,0,0,1,13.14-.08l0.31,0.73a2.29,2.29,0,0,0-.43.13,3.13,3.13,0,0,0-1.69,1.72,3.14,3.14,0,0,0-4.1,1.73,3.14,3.14,0,0,0-4.1,1.73,3.13,3.13,0,0,0-2.41,0h0a2.27,2.27,0,0,0-.38.21l-0.31-.73A7.06,7.06,0,0,1,285.61,207.7Z" transform="translate(-261.93 -189.4)"/><path class="cls-2" d="M285.65,213.14a7.11,7.11,0,0,1,13.1-5.53l0.31,0.73a2.29,2.29,0,0,0-.43.13,3.13,3.13,0,0,0-1.69,1.72,3.14,3.14,0,0,0-4.1,1.73,3.14,3.14,0,0,0-4.1,1.73,3.13,3.13,0,0,0-2.41,0h0a2.27,2.27,0,0,0-.38.21Z" transform="translate(-261.93 -189.4)"/><path class="cls-8" d="M298.71,217.24a9.2,9.2,0,0,0-10.57,11,2.61,2.61,0,0,0,.8-1.47,0.92,0.92,0,0,1,1.81.31,2.62,2.62,0,1,0,5.17.89,0.92,0.92,0,0,1,1.81.31,2.62,2.62,0,1,0,5.17.89,0.92,0.92,0,0,1,1.81.31,2.61,2.61,0,0,0,.26,1.65A9.2,9.2,0,0,0,298.71,217.24Zm-0.17,1.87a0.92,0.92,0,0,1-1.06.75,5.72,5.72,0,0,0-6.6,4.66,0.92,0.92,0,0,1-1.81-.31,7.56,7.56,0,0,1,8.73-6.15A0.92,0.92,0,0,1,298.53,219.11Z" transform="translate(-261.93 -189.4)"/><path class="cls-2" d="M283.48,235.57l0.92-5.33a3,3,0,0,0,1.19.48,4.45,4.45,0,0,0,3.79-1.12,4.45,4.45,0,0,0,7,1.21,4.45,4.45,0,0,0,7,1.21,4.45,4.45,0,0,0,3.19,2.33,3,3,0,0,0,1.26,0l-0.92,5.32a11.83,11.83,0,0,1-4.77,7.61l-1.41.87A11.86,11.86,0,0,1,283.48,235.57Z" transform="translate(-261.93 -189.4)"/><path class="cls-6" d="M320.63,217.49A25.6,25.6,0,0,1,295,243.1a1.32,1.32,0,0,1-1.29-1l-1.32-5.74a1.34,1.34,0,0,1,.77-1.52l6.18-2.65a1.32,1.32,0,0,1,1.55.38l2.74,3.34a20.45,20.45,0,0,0,9.78-9.78l-3.34-2.74a1.32,1.32,0,0,1-.38-1.55l2.65-6.18a1.33,1.33,0,0,1,1.52-.77l5.74,1.32A1.32,1.32,0,0,1,320.63,217.49Z" transform="translate(-261.93 -189.4)"/><path class="cls-7" d="M295,243.85a2.07,2.07,0,0,1-2-1.61l-1.32-5.74a2.1,2.1,0,0,1,1.2-2.38l6.19-2.65a2.09,2.09,0,0,1,2.43.6l2.36,2.88a19.64,19.64,0,0,0,8.63-8.63L309.6,224a2.08,2.08,0,0,1-.6-2.43l2.65-6.18a2.08,2.08,0,0,1,2.38-1.21l5.74,1.32a2.07,2.07,0,0,1,1.61,2A26.39,26.39,0,0,1,295,243.85Zm4.86-11a0.56,0.56,0,0,0-.22,0l-6.18,2.65a0.58,0.58,0,0,0-.33.66l1.32,5.74a0.57,0.57,0,0,0,.56.44,24.88,24.88,0,0,0,24.85-24.85,0.57,0.57,0,0,0-.44-0.56l-5.74-1.32a0.58,0.58,0,0,0-.65.33l-2.65,6.18a0.56,0.56,0,0,0,.16.66l3.8,3.11-0.25.53A21.14,21.14,0,0,1,304,236.57l-0.53.25-3.11-3.8A0.57,0.57,0,0,0,299.88,232.81Z" transform="translate(-261.93 -189.4)"/></svg>