<svg id="Layer_2" data-name="Layer 2" xmlns="http://www.w3.org/2000/svg" viewBox="0 0 42.94 64.49"><defs><style>.cls-1{fill:#fff;}.cls-2{fill:#f3d036;}.cls-3{fill:#222221;}</style></defs><title>logo_slider</title><path class="cls-1" d="M-235.76,378.19a18.77,18.77,0,0,0,3.35,10.74l0.09,0.16,13.7,27.36,0,0.05a4.19,4.19,0,0,0,1.71,2.13c0.36,0,1.26-1.11,1.71-2.13l0-.05L-201,388.38a1.28,1.28,0,0,1,.1-0.19,18.82,18.82,0,0,0,2.87-10,18.9,18.9,0,0,0-18.88-18.88A18.9,18.9,0,0,0-235.76,378.19Z" transform="translate(238.35 -356.72)"/><circle class="cls-2" cx="21.58" cy="21.47" r="10.61"/><path class="cls-1" d="M-209.4,379.48a1.29,1.29,0,0,1-1.29-1.29,6.07,6.07,0,0,0-6.07-6.07,1.29,1.29,0,0,1-1.29-1.29,1.29,1.29,0,0,1,1.29-1.29,8.66,8.66,0,0,1,8.65,8.65A1.29,1.29,0,0,1-209.4,379.48Z" transform="translate(238.35 -356.72)"/><path class="cls-3" d="M-216.76,365.66a12.54,12.54,0,0,0-12.53,12.53,12.54,12.54,0,0,0,12.53,12.53,12.54,12.54,0,0,0,12.53-12.53A12.54,12.54,0,0,0-216.76,365.66Zm0,22.47a10,10,0,0,1-9.94-9.94,10,10,0,0,1,9.94-9.94,10,10,0,0,1,9.94,9.94A10,10,0,0,1-216.76,388.13Z" transform="translate(238.35 -356.72)"/><path class="cls-3" d="M-195.41,378.19a21.49,21.49,0,0,0-21.47-21.47,21.49,21.49,0,0,0-21.47,21.47,21.34,21.34,0,0,0,3.76,12.13l13.65,27.26c0.3,0.67,1.78,3.63,4.06,3.63s3.76-3,4.06-3.63l14.2-28.1A21.41,21.41,0,0,0-195.41,378.19ZM-201,388.38l-14.18,28.06,0,0.05c-0.45,1-1.35,2.13-1.71,2.13a4.19,4.19,0,0,1-1.71-2.13l0-.05-13.7-27.36-0.09-.16a18.77,18.77,0,0,1-3.35-10.74,18.9,18.9,0,0,1,18.88-18.88A18.9,18.9,0,0,1-198,378.19a18.82,18.82,0,0,1-2.87,10A1.28,1.28,0,0,0-201,388.38Z" transform="translate(238.35 -356.72)"/></svg>